<svg xmlns="http://www.w3.org/2000/svg" width="240" height="160"><g fill="none"><g fill="#8355E1"><g transform="translate(22)"><circle cx="62" cy="62" r="62" opacity=".04"/><circle cx="172" cy="64" r="24" opacity=".06"/><circle cx="90" cy="148" r="12" opacity=".08"/></g></g><rect id="dot" width="140" height="92" x="50" y="34" fill="#E8E9EA" rx="8"/><rect width="138" height="90" x="51" y="35" fill="#fff" rx="7"/><g><path fill="#C7C9CB" fill-rule="nonzero" d="M86.64 90.33c-2.35-5.06-.16-11.1 4.9-13.45l11.8-5.5-2.6-5.64-11.83 5.52c-8.14 3.8-11.67 13.53-7.87 21.7 3.8 8.16 13.5 11.7 21.66 7.88l11.8-5.5-2.6-5.63-11.83 5.52c-5.05 2.36-11.07.17-13.43-4.9z"/><g stroke="#212732" stroke-width="4" opacity=".1" stroke-linecap="round" stroke-linejoin="round"><g id="Group"><path id="Line-2" d="M104 58.28l3.3 3.36M112.55 53.43l1.26 4.8M123.62 53.63l-2.1 5.05"/></g><g id="Group"><path id="Line-2" d="M133.9 105.66l-3.07-3.37M125.02 109.64l-.92-4.6M114 108.72l2.45-4.6"/></g></g><g stroke="#2C96DF" stroke-width="4" stroke-linecap="round" stroke-linejoin="round"><g id="Group"><path id="Line-2" d="M105 57.28l3.3 3.36M113.55 52.43l1.26 4.8M124.62 52.63l-2.1 5.05"/></g><g><path d="M134.9 104.66l-3.07-3.37M126.02 108.64l-.92-4.6M115 107.72l2.45-4.6"/></g></g><path fill="#C7C9CB" d="M144.1 61.32h-13.05v6.2h13.04c5.56 0 10.1 4.54 10.1 10.12 0 5.58-4.54 10.12-10.1 10.12h-13.05v6.2h13.04c8.98 0 16.28-7.3 16.28-16.32 0-9-7.3-16.32-16.3-16.32z"/></g><path fill="#E8E9EA" d="M180 46c-1.1 0-2-.9-2-2s.9-2 2-2 2 .9 2 2-.9 2-2 2zm-7 0c-1.1 0-2-.9-2-2s.9-2 2-2 2 .9 2 2-.9 2-2 2zm-7 0c-1.1 0-2-.9-2-2s.9-2 2-2 2 .9 2 2-.9 2-2 2z"/></g></svg>